<svg xmlns="http://www.w3.org/2000/svg" version="1.1" xmlns:xlink="http://www.w3.org/1999/xlink" width="2000" height="1500" viewBox="0 0 2000 1500"><rect width="2000" height="1500" x="0" y="0" id="background" stroke="transparent" fill="#ffffff"></rect><svg xml:space="preserve" width="1500" height="1125" data-version="2" data-id="lg_JsnIXKKvwUQMRyEWC0" viewBox="0 0 571 435" x="250" y="187.5"><rect width="100%" height="100%" fill="transparent"></rect><rect width="261.208" height="665.421" x="-130.604" y="-332.71" fill="#001f3f" rx="60.39" ry="60.39" transform="rotate(-90 303.011 17.511)scale(.8416)"></rect><rect width="137.323" height="625.033" x="-68.662" y="-312.516" fill="none" stroke="#fff" stroke-width="10" rx="60.39" ry="60.39" transform="rotate(-90 319.913 34.804)scale(.8416)"></rect><path fill="#fff" d="M90.331 376.13q-5.04 0-7.63-2.86-2.58-2.87-2.58-8.23v-2.52h6.55v3.03q0 4.28 3.59 4.28 1.77 0 2.68-1.04.91-1.04.91-3.37 0-2.77-1.26-4.88t-4.66-5.07q-4.28-3.78-5.98-6.84-1.7-3.05-1.7-6.9 0-5.22 2.64-8.09 2.65-2.87 7.69-2.87 4.97 0 7.53 2.87 2.55 2.87 2.55 8.22v1.83h-6.55v-2.27q0-2.27-.89-3.31-.88-1.04-2.58-1.04-3.46 0-3.46 4.22 0 2.4 1.29 4.48 1.29 2.08 4.69 5.04 4.35 3.78 5.99 6.86 1.63 3.09 1.63 7.25 0 5.42-2.67 8.31-2.68 2.9-7.78 2.9m14.42-.63v-44.1h18.9v6.3h-11.97v11.66h9.52v6.3h-9.52v13.54h11.97v6.3zm22.87 0v-44.1h8.7l6.74 26.4h.12v-26.4h6.18v44.1h-7.12l-8.32-32.19h-.12v32.19zm32.32 0v-37.8h-7.24v-6.3h21.42v6.3h-7.25v37.8zm17.51 0v-44.1h6.93v44.1zm12.1 0v-44.1h9.89l4.41 31.57h.13l4.41-31.57h9.89v44.1h-6.55v-33.39h-.13l-5.04 33.39h-5.8l-5.04-33.39h-.12v33.39zm33.89 0v-44.1h18.9v6.3h-11.97v11.66h9.52v6.3h-9.52v13.54h11.97v6.3zm22.87 0v-44.1h8.7l6.74 26.4h.12v-26.4h6.18v44.1h-7.12l-8.32-32.19h-.12v32.19zm32.32 0v-37.8h-7.24v-6.3h21.42v6.3h-7.25v37.8zm25.77 0 7.18-44.1h9.39l7.18 44.1h-6.93l-1.26-8.75v.12h-7.87l-1.26 8.63zm8.5-14.61h6.24l-3.09-21.8h-.12zm18.59 14.61v-44.1h8.69l6.74 26.4h.13v-26.4h6.17v44.1h-7.11l-8.32-32.19h-.13v32.19zm25.07 0 7.19-44.1h9.38l7.18 44.1h-6.93l-1.26-8.75v.12h-7.87l-1.26 8.63zm8.51-14.61h6.24l-3.09-21.8h-.13zm18.58 14.61v-44.1h6.93v37.8h11.41v6.3zm28.04 0v-18.77l-8.38-25.33h7.37l4.73 16.19h.12l4.73-16.19h6.74l-8.38 25.33v18.77zm17.07 0v-6.17l12.85-31.63h-12.22v-6.3h19.66v6.18l-12.85 31.62h12.85v6.3zm24.19 0v-44.1h18.9v6.3h-11.97v11.66h9.52v6.3h-9.52v13.54h11.97v6.3zm22.87 0v-44.1h10.27q5.36 0 7.81 2.49 2.46 2.49 2.46 7.66v2.7q0 6.87-4.54 8.7v.12q2.52.76 3.56 3.09t1.04 6.24v7.75q0 1.89.13 3.05.13 1.17.63 2.3h-7.06q-.37-1.07-.5-2.01-.13-.95-.13-3.41v-8.06q0-3.02-.97-4.22-.98-1.2-3.37-1.2h-2.4v18.9zm6.93-25.2h2.52q2.08 0 3.12-1.07t1.04-3.59v-3.4q0-2.4-.85-3.47-.85-1.07-2.68-1.07h-3.15z"></path><g fill="#001f3f" stroke="#fff" stroke-width="9.5" paint-order="stroke"><path stroke-width="3.35825" d="M283 276.319c-3.111-2.334-5.621-5.055-6.54-9.015-.283-1.308-1.52-1.696-2.793-1.484-3.146.495-4.242-1.874-3.959-4.313.283-2.58 1.131-4.949 2.51-7.176 2.934-4.666 4.984-9.757 4.949-15.236-.035-4.1-.106-8.378-2.05-12.266-.955-1.874-1.874-2.263-3.641-1.132-1.52.955-3.182 1.627-4.914 2.086-1.803.46-3.535 1.096-5.09 2.192-1.132.813-2.51 1.45-3.854.318-1.237-1.025-1.59-2.369-1.166-3.96.778-3.04 2.368-5.55 4.56-7.706 4.348-4.348 7.848-9.155 8.767-15.483.247-1.803 1.131-3.323 2.792-4.065 3.076-1.343 5.374-3.641 7.636-5.974 1.874-1.91 6.929-2.227 8.696-.248 2.298 2.58 5.48 4.03 7.671 6.681.672.849 1.555 1.556 1.697 2.687.954 7.035 5.055 12.443 9.474 17.498 2.12 2.475 3.04 5.126 3.464 8.166.141 1.167-.212 2.121-1.237 2.793-1.06.671-1.945.247-2.758-.424-2.828-2.369-6.221-3.43-9.615-4.525-1.555-.495-2.616-.142-3.146 1.378-1.626 4.631-3.606 9.12-3.11 14.353.494 5.02 2.226 9.438 4.665 13.715 1.308 2.298 2.722 4.525 1.874 7.388-.6 1.945-1.732 3.076-3.888 2.864-1.91-.212-2.793.671-3.147 2.545-.6 3.358-3.04 5.691-5.02 8.237-.954.106-1.908.106-2.827.106m-30.366-156.636c-.53-2.333.495-4.843 2.687-7.035 1.449-1.45 1.98-3.5 2.898-5.267 1.414-2.687 2.828-2.934 4.985-.742 2.015 2.05 3.64 4.418 4.666 7.14.99 2.58 2.156 3.076 4.701 1.945 3.076-1.38 5.197-3.854 6.858-6.717.743-1.273 1.308-2.651 2.05-3.924.743-1.237 1.627-1.096 2.298.07.672 1.132 1.167 2.37.743 3.748-.248.813-.46 1.661-.53 2.51-.708 7.176 6.292 11.771 13.185 8.837 4.737-2.015 7.706-5.55 10.004-9.898.283-.565.53-1.13.848-1.661 1.026-1.662 2.546-1.909 3.465-.283 1.378 2.369 3.323 4.277 4.843 6.505 1.909 2.828 1.661 6.115.99 9.226-1.52 7.14-4.95 13.256-10.04 18.559-4.807 5.02-10.145 9.65-13.716 15.73-4.949 5.727-6.822 19.443-7.211 20.503-.354 1.06-.92 1.874-2.086 1.839-1.096-.036-1.59-.955-1.803-1.874-.707-3.075-1.59-6.15-1.944-9.297-.46-4.03-2.58-7.247-4.383-10.64-2.864-5.338-7.035-9.58-11.418-13.68-5.727-5.48-9.722-11.984-11.56-19.761-.424-1.697-.353-3.394-.53-5.833m-10.357 99.616c-4.384-.212-8.732-1.167-13.186-.813-3.5.283-4.525 1.131-5.09 4.666-.566 3.5-1.132 7.035-2.015 10.464-.672 2.616-.354 4.807 1.166 7.034 1.131 1.627.636 2.652-1.131 3.04-3.782.814-5.48 3.995-4.313 7.813.813 2.616 2.227 4.701 4.702 6.115 1.626.92 3.217 1.874 4.49 3.288 2.014 2.192 2.014 4.702.07 6.893-1.273 1.414-2.651 1.838-4.313.672-.919-.636-1.873-1.237-3.005-.566-2.262 1.308-3.676.106-4.772-1.696-.671-1.132-1.096-2.404-1.626-3.606-.247-.53-.6-.92-1.237-.92-.742 0-1.237.53-1.237 1.167.106 4.737-4.49 6.646-6.187 10.287-.565 1.237-1.873 1.308-2.934.283-3.323-3.288-5.585-5.833-1.59-10.994.282-.353.565-.742.813-1.131.495-.743.813-1.556.106-2.333-.743-.849-1.697-.99-2.758-.566-1.272.53-1.98 1.697-2.792 2.722-1.98 2.545-3.783 2.97-6.61 1.59-1.026-.494-1.98-.6-3.111-.388-2.228.424-3.288-.954-2.334-3.005.672-1.484 1.167-3.005 1.697-4.56 1.273-3.606 4.525-4.666 7.777-5.48a15.094 15.094 0 0 1 8.025.213c3.358.954 5.373-.354 6.15-3.676 1.627-7.07 3.465-14.211 3.96-21.423.318-4.63 1.803-9.332.636-14.069-.035-.141-.035-.318-.035-.46 0-3.534 6.928-9.544 10.428-8.943 2.899.495 5.585.177 8.378-.954 2.899-1.167 6.115-1.556 9.12-2.687 3.43-1.308 6.328-3.217 8.661-6.045a17.22 17.22 0 0 1 2.086-2.156c1.378-1.237 2.757-1.131 3.676.53 2.262 4.207 5.196 7.671 9.757 9.51 1.732.706 2.156 2.226 1.661 4.1-1.909 7.423-6.08 12.62-13.857 14.387-2.97.637-5.939 1.944-9.226 1.697m61.084-15.872c-.176-2.616.884-3.783 2.369-4.631 3.57-1.98 6.822-4.171 8.66-8.095 1.202-2.545 3.04-2.44 4.985-.424 6.328 6.752 13.998 10.675 23.437 11.1 4.701.212 9.474.883 12.585 5.302.813 1.167 1.696 2.369 1.661 3.747-.07 3.57.212 7.14.495 10.64.353 4.808.565 9.686 1.343 14.494.495 2.97 1.273 5.903 1.52 8.908.46 5.656 4.278 7.282 9.227 6.363 6.787-1.272 13.433 2.58 14.175 10.11.141 1.273-.636 2.333-1.662 2.899-3.428 1.909-6.716 2.262-9.332-1.131-.6-.813-1.166-1.662-1.838-2.404-.601-.636-1.379-1.025-2.298-.566-.99.495-1.131 1.38-.99 2.369.177 1.308 1.096 2.227 1.768 3.252 2.192 3.323.707 7.494-3.111 8.625-.424.107-1.025.177-1.343-.035-3.111-2.333-7.954-3.146-7.742-8.555.035-.707-.353-1.378-1.131-1.59-.778-.212-1.343.282-1.803.813-.92 1.13-1.767 2.368-2.722 3.464-1.096 1.237-2.404 1.732-3.924.707-1.025-.707-2.085-.636-3.11-.212-1.768.707-2.97-.141-4.066-1.379-1.096-1.272-.778-2.58-.07-3.888.813-1.556 1.944-2.793 3.676-3.358.954-.319 1.803-.884 2.757-1.238 5.62-1.944 6.08-9.827 2.333-13.15-8.837-1.025-2.58-3.994-2.545-6.646.07-5.055-.636-10.04-2.227-14.811-1.45-4.348-4.242-5.515-8.66-4.631-3.96.777-8.06.636-12.055.318-5.02-.424-9.65-2.086-13.68-5.267-3.889-3.076-5.904-7.106-6.682-11.1M286.075 14.94c5.161-.849 10.464-.743 15.519-2.475 2.227-.778 3.959-2.085 5.691-3.5.849-.706 1.662-1.484 2.864-.777 1.307.742 1.696 1.873 1.555 3.358-.283 3.676-2.616 5.904-5.515 7.565-2.439 1.45-4.949 2.757-8.024 2.828-2.05.035-3.818.954-4.49 3.358-.53 1.91-2.015 3.076-4.136 3.182-.636.035-1.343.035-1.484.813-.177.919.6 1.166 1.237 1.45 2.156.989 4.596.07 6.222-2.263 2.863-4.1 8.236-4.808 12.23-1.591 1.768 1.414 1.91 2.828.354 4.525-.46.53-.99.99-1.484 1.45-1.238 1.13-.99 2.155.212 3.075.106.106.247.176.388.282 1.308.955 2.935 1.91 2.44 3.818-.566 2.015-2.44 2.757-4.348 3.005-1.697.212-3.394.106-5.126.177-1.414.035-2.157.6-1.944 2.191.353 2.616-.213 3.394-2.9 3.394-6.185.035-12.124-1.343-17.85-3.606-2.9-1.13-5.162-2.722-6.329-5.939-.883-2.439-2.934-4.17-5.974-3.959-.954.071-1.98-.106-2.333-1.166-.389-1.202.566-1.803 1.45-2.369 1.59-.99 3.358-1.59 5.231-1.873.53-.071 1.096-.142 1.591-.354.99-.46 2.192-.954 1.803-2.298-.389-1.414-1.768-1.52-2.899-1.166-3.64 1.202-7.07 2.793-9.509 5.974-.565.742-1.06 1.52-1.661 2.262-.92 1.132-2.015 2.157-3.57 1.238-1.485-.92-2.298-2.227-1.556-4.136 1.59-4.242 4.49-7.46 8.201-9.828 7.388-4.595 15.625-6.186 24.144-6.645M149.518 72.809c-.53-7.954 2.121-14.741 6.858-20.821.813-1.061 1.59-2.581 3.323-1.945 1.59.566 1.308 2.121 1.308 3.43.247 17.427 8.837 29.587 23.72 37.894 3.711 2.086 7.6 3.359 11.7 4.348 3.394.814 4.349 2.121 4.455 5.55v.707c.353 5.868-.177 7.777-7.848 6.929-3.96-.46-7.99-.53-11.948-1.308-6.505-1.273-12.196-3.96-17.251-8.06-2.51-2.05-4.772-4.419-7-6.787-4.135-4.525-7.246-13.185-7.317-19.937m239.885-31.356c.212-4.03.177-7.741-2.015-11.064-.636-.955-.636-2.121.354-2.97.954-.813 2.12-.671 3.005.036 3.64 2.757 7.14 5.762 9.65 9.615 1.52 2.298 3.11 4.595 4.03 7.317 3.252 9.58 1.909 18.559-2.58 27.538-4.207 8.378-11.136 13.504-18.877 17.887-2.828 1.626-6.151 2.475-9.333 3.429-2.545.778-4.207-.212-5.09-2.722-.672-1.909-1.167-3.853-1.626-5.797-.354-1.556.53-2.652 1.661-3.606 2.086-1.732 4.313-3.288 6.257-5.197 6.504-6.469 10.746-14.246 13.15-23.118 1.096-3.854 1.944-7.636 1.414-11.348"></path><path stroke-width="3.35825" d="M378.727 111.018c-1.555.035-3.11.141-4.666.035-2.828-.176-4.1-1.414-4.136-4.242-.141-8.166-.883-7.459 7.141-9.58 12.69-3.393 22.27-11.029 28.775-22.305 2.58-4.49 3.888-9.58 4.454-14.777.177-1.59.53-3.217 1.025-4.737.53-1.626 1.944-1.873 3.005-.494 4.171 5.373 7.53 11.418 7.67 18.134.178 8.095-2.12 15.837-7.882 22.165-7.459 8.165-16.58 12.973-27.361 15.023-2.651.46-5.303.849-8.025.778m-213.796-58.54c.954-7.989 2.262-15.518 8.272-21.528 2.792-2.792 5.443-5.479 9.155-6.893.884-.318 1.768-.778 2.58.07.955.99.213 1.874-.282 2.723-3.641 6.327-3.818 13.008-2.616 20.008 1.202 7.07 4.136 13.468 7.636 19.548 2.227 3.889 5.055 7.424 8.766 10.11.248.177.53.319.778.53 5.02 3.642 5.798 7.177 2.651 12.515-.919 1.59-2.297 2.51-4.277 1.908-5.727-1.696-11.03-3.959-15.978-7.6-6.257-4.595-9.757-10.994-13.15-17.463-2.333-4.206-2.722-9.226-3.535-13.928"></path><path stroke-width="3.35825" d="M187.201 40.958c1.202-8.095 3.252-15.907 9.545-21.563 4.878-4.419 10.852-6.823 17.675-6.222 1.202.106 2.474.248 2.863 1.556.389 1.378-.672 2.156-1.767 2.616-4.42 1.767-5.727 5.55-6.399 9.791-.424 2.758-.954 5.444-.848 8.272.318 7.919 2.792 15.165 6.54 22.023 1.661 3.04 1.732 4.348-.425 6.929-2.333 2.793-4.277 5.903-6.01 9.085-1.59 2.97-3.004 3.146-5.125.46-2.015-2.546-4.454-4.702-6.363-7.389-4.808-6.68-7.353-14.281-9.403-22.093-.283-1.096-.177-2.298-.283-3.465m196.44-.565c.212 7.14-1.767 13.75-5.161 20.255-2.616 4.95-6.01 9.191-9.332 13.54-2.687 3.499-4.631 3.287-6.788-.496a30.591 30.591 0 0 0-5.055-6.645c-3.004-3.04-3.358-4.667-.99-8.166 2.581-3.853 4.278-8.13 5.692-12.408 2.51-7.424 3.57-15.06-.707-22.412-.99-1.732-2.298-3.075-3.782-4.348-.884-.742-2.05-1.52-1.52-2.863.6-1.45 1.944-2.334 3.57-1.98 4.171.954 8.342 1.944 11.842 4.56 4.171 3.146 7.459 7.14 10.499 11.418 2.156 2.97 1.379 6.186 1.732 9.545m-204.323 86.572c-9.332.283-17.993-2.086-25.629-7.388-5.62-3.924-9.862-9.156-11.736-15.979a.502.502 0 0 1-.07-.212c-.39-5.62.106-11.135 2.333-16.296.99-2.262 3.393-2.192 4.383.177 2.51 6.08 6.717 10.746 11.489 14.988 4.383 3.889 9.085 7.07 14.882 8.732 5.62 1.626 11.135 3.216 17.039 3.146 1.732-.036 3.358-.424 5.02-.813 3.181-.778 4.949.565 5.055 3.818.176 5.373-1.238 6.963-7.389 7.741-1.944.248-3.817.636-5.69 1.096-1.274.318-2.546.813-3.819.92-1.98.105-3.924.034-5.868.07m194.284-11.807c2.12-.389 4.277.919 6.646.848 7.812-.282 15.2-1.803 22.376-5.267 5.974-2.899 10.676-7.034 15.13-11.736 1.732-1.838 2.44-4.277 3.641-6.434.46-.813.848-1.661 1.414-2.404 1.025-1.307 2.227-1.343 3.358-.176 1.379 1.414 2.298 3.181 2.722 5.09 2.333 10.5.248 17.675-8.484 24.462a44.188 44.188 0 0 1-19.089 8.661c-6.61 1.273-13.291 1.45-19.973.035-3.464-.742-7.07-.6-10.357-2.297-3.146-1.626-3.924-2.652-3.358-5.232 1.166-5.232 1.449-5.515 5.974-5.55m3.252 76.073c-6.398.142-10.711-3.11-15.13-6.08-7.388-4.914-11.63-12.267-15.271-20.044-.92-1.944-1.343-4.1-1.803-6.221-.424-1.944.495-3.5 2.05-4.596 1.344-.919 2.758-1.732 4.172-2.51 1.414-.812 2.368 0 3.217.99 1.449 1.732 2.721 3.606 4.277 5.197 7.423 7.635 16.332 13.044 26.548 16.013a36.114 36.114 0 0 0 10.534 1.45c1.167 0 2.44-.071 3.075 1.166.707 1.379-.46 2.121-1.237 2.97-4.49 4.878-9.933 8.342-16.084 10.746-1.59.601-3.252 1.025-4.348.92M224.955 156.73c-.354 1.838-.495 4.348-1.661 6.433-3.182 5.586-5.869 11.489-10.323 16.226-2.65 2.828-5.196 5.762-8.731 7.565-4.843 2.474-9.969 2.404-14.847.707-6.328-2.192-11.948-5.833-17.039-10.216-.848-.743-1.661-1.556-1.131-2.793.566-1.414 1.838-1.273 3.005-1.06 4.383.848 8.413-.319 12.478-1.768 8.52-3.075 15.802-8.095 22.695-13.822 1.944-1.626 3.075-3.888 4.772-5.656 2.687-2.757 8.343-2.015 10.287 1.343.424.813.53 1.627.495 3.04"></path><path stroke-width="3.35825" d="M398.698 148.986c-11.63.035-22.447-3.146-32.592-8.59-4.384-2.333-4.808-7.742-1.132-11.135 1.096-1.026 2.192-.884 3.359-.106 2.403 1.59 5.09 2.545 7.847 3.428 3.783 1.202 7.707 1.591 11.63 1.91 2.086.176 4.03 1.095 6.187.883 6.363-.636 12.408-2.439 18.311-4.843a37.447 37.447 0 0 0 11.277-7.211c.742-.672 1.484-1.167 2.51-.778.954.354 1.413 1.202 1.555 2.156.742 4.737-2.757 15.731-8.696 18.347-4.242 1.874-8.237 4.136-12.797 5.303-2.51.565-4.984.53-7.459.636m-226.381-2.333c-5.197.848-10.676-1.025-15.872-3.465-8.378-3.959-13.787-11.559-13.68-21.21 0-1.201.07-2.403 1.272-3.04 1.343-.707 2.262.283 3.04 1.096 5.232 5.409 11.736 8.52 18.806 10.676 1.697.53 3.464.813 5.232 1.06 5.833.849 11.56 1.52 17.428-.282 4.418-1.344 9.084-1.945 13.291-4.03.389-.212.955-.39 1.343-.283 2.828.813 3.147 3.606 4.242 5.727.813 1.555-.212 2.65-1.343 3.535-1.06.777-2.12 1.555-3.393 1.98-1.38.494-2.793 1.024-4.03 1.802a21.512 21.512 0 0 1-7.247 2.899c-3.076.6-5.833 2.262-9.085 2.722-3.11.424-6.151.742-10.004.813"></path><path stroke-width="3.35825" d="M177.162 167.155c-8.272.636-15.2-2.616-21.246-7.813-2.863-2.474-4.984-5.762-5.267-9.792-.07-.954.036-1.908.955-2.474.919-.566 1.555.212 2.298.601 3.428 1.732 6.716 3.782 10.71 4.171 2.51.248 4.773 1.803 7.46 1.626 7.105-.495 13.821-2.474 20.467-4.913 5.338-1.945 10.18-4.914 15.13-7.636 1.803-.99 3.252-1.272 4.666.495 1.98 2.475 2.369 5.055.778 6.717a51.87 51.87 0 0 1-4.03 3.853c-7.777 6.61-15.696 12.938-26.16 14.74-1.873.354-3.817.319-5.761.425m222.069 2.368c-11.383-.389-21.034-2.58-29.73-8.272-4.56-2.969-9.19-5.797-12.337-10.428-2.05-3.04-1.308-6.363 1.803-8.307 1.308-.813 2.404-.424 3.429.389 8.625 7.07 19.053 9.65 29.623 11.948 5.762 1.273 11.312-.283 16.862-1.485 2.368-.495 4.596-1.272 6.717-2.439 1.732-.954 3.075-.035 3.075 1.944 0 1.52-.566 2.864-1.485 4.066-1.096 1.484-2.297 2.934-3.287 4.49-3.677 5.761-9.403 7.564-14.67 8.094m-156 1.414c-.636-2.616-1.06-5.302-1.98-7.847a18.028 18.028 0 0 1-.6-10.04c.918-4.242 2.297-8.342 3.676-12.443 1.025-2.934 2.51-3.394 4.737-1.308 2.262 2.121 4.63 4.1 7.246 5.833s3.96 4.312 3.995 7.494c.035 2.086 3.358 18.064-3.358 25.31-2.333 3.818-8.555 6.364-13.751 3.394-1.414-.813-1.98-2.05-1.556-3.747.601-2.192 1.096-4.383 1.59-6.646m85.69-12.584c-.496 2.403-.283 5.302-1.344 8.06-1.202 3.146-1.096 6.398-.353 9.615.46 1.944 1.025 3.817-.778 5.337-1.91 1.591-4.136 1.98-6.54 1.485-6.115-1.272-8.731-5.797-10.004-11.276-.778-3.359-1.131-6.788-.813-10.323.318-3.535.035-7.034 1.273-10.534 1.095-3.04 2.898-5.302 5.55-6.893 1.696-.99 3.216-2.121 4.595-3.5 2.086-2.05 3.464-1.803 4.737.92 1.697 3.676 2.404 7.67 3.11 11.63.284 1.696.354 3.393.566 5.479M287.913 106.6c.601-5.02-.883-9.509-3.393-13.75-1.025-1.768-1.414-3.748-2.015-5.657-.53-1.767-.036-3.005 1.555-3.853 2.263-1.202 3.924-2.97 4.985-5.338.424-.99 1.025-2.05 2.297-2.05 1.308 0 1.732 1.096 2.157 2.12 1.166 2.9 3.004 4.773 6.433 4.632 2.015-.071 3.323 1.308 4.136 2.934 1.132 2.191 2.015 4.524 1.98 7.07-.035 4.312.353 8.59-1.167 12.867-1.696 4.737-6.822 9.368-11.771 9.898-3.076.318-5.055-1.379-5.161-4.454 0-1.45 0-2.934-.036-4.419m-47.121 6.293c1.838-.107 2.651.671 2.51 2.368-.071.707-.142 1.379-.248 2.086-.707 3.57-.954 7.105.07 10.746.708 2.475-.53 4.207-2.862 5.691-5.162 3.217-9.51 7.389-12.585 12.762-1.273 2.227-2.545 2.51-4.808 1.237-2.191-1.237-3.923-2.863-5.125-5.196-1.45-2.828-3.712-5.162-5.055-8.06-1.026-2.298-.637-3.111 1.414-4.596 4.206-3.04 8.625-5.726 12.549-9.155 3.782-3.359 8.201-5.798 12.973-7.53.424-.212.884-.283 1.167-.353m86.112 17.321c.39-1.98.778-3.96 1.132-5.939.388-2.262.282-4.49-.46-6.646-.424-1.237-.353-2.262.707-3.146 1.025-.813 2.05-.495 3.04.036 6.47 3.393 12.373 7.706 18.276 11.948 1.838 1.308 3.57 2.722 5.373 4.1 1.874 1.45 2.44 3.217 1.662 5.55-1.91 5.692-5.939 9.722-10.428 13.363-1.627 1.308-3.288.919-3.995-.884-2.545-6.363-7.883-10.216-12.797-14.458-1.272-1.096-2.757-1.944-2.51-3.924"></path><path stroke-width="3.35825" d="M278.475 181.154c-.142 1.697.035 3.394-.212 5.126-.566 4.065-3.076 6.47-6.363 8.343-4.702 2.651-13.363-1.52-14.388-6.823-.247-1.343.212-2.439 1.06-3.429 3.995-4.595 7.035-10.251 6.894-22.412-.106-2.05-.353-3.994-.919-5.938-.318-1.132-.389-2.44.848-3.111 1.273-.672 2.086.424 2.687 1.237 6.01 7.99 10.322 16.685 10.393 27.007m12.903-8.378c1.98-6.787 5.444-12.796 10.216-18.028.636-.707 1.202-1.803 2.474-1.167 1.202.601 1.131 1.768.92 2.864-1.839 9.332-.248 18.134 4.03 26.512.388.743.812 1.52 1.166 2.263 1.237 2.545.884 4.666-1.237 6.433-3.217 2.652-6.894 4.596-11.1 2.97-3.96-1.556-6.363-4.737-7.035-9.085-.247-1.732-.177-10.287.566-12.762m-87.386-71.16c.884-5.726 1.308-11.488 3.217-16.896 1.308-3.712 2.722-4.066 6.045-1.91 1.732 1.132 3.288 2.546 5.338 3.253 2.262.742 4.171.53 6.045-1.06 2.828-2.37 4.63-2.334 7.423.035 2.086 1.732 4.136 3.57 5.656 5.797.813 1.202 1.662 2.545.884 4.1-.742 1.52-2.262 1.45-3.641 1.45-4.419 0-8.343 1.52-11.913 3.96-1.626 1.095-3.181 2.156-5.338 1.449-1.131-.354-2.262.07-3.217.919a42.872 42.872 0 0 1-3.04 2.545c-1.414 1.06-2.757 2.404-4.807 1.379-1.556-.849-2.652-2.9-2.652-5.02m71.832 5.126c-2.475 3.04-3.43 3.535-5.55.318-1.98-3.005-4.773-5.267-7.388-7.671-2.9-2.651-4.03-5.656-4.207-9.58-.283-6.292 1.272-11.736 5.338-16.544 1.484-1.767 2.51-1.98 3.924-.212 2.156 2.687 4.312 5.232 7.53 6.717.918.424 1.413 1.414 1.52 2.474.423 3.96 3.817 18.382-1.167 24.498m89.965-6.08c.036 1.555.142 3.11.036 4.666-.212 3.004-2.369 4.206-4.985 2.722-2.05-1.132-3.747-2.758-5.479-4.313-1.272-1.131-2.686-1.803-4.419-1.626-2.12.212-3.923-.707-5.762-1.556-3.075-1.484-6.15-2.863-9.686-2.934-2.439-.07-3.64-2.297-2.615-4.524 1.272-2.793 3.146-5.162 5.69-6.964 2.334-1.662 4.773-1.91 6.859 0 3.853 3.57 7.353 1.908 10.994-.106.954-.53 1.802-1.273 2.757-1.733 1.909-.919 3.323-.424 4.1 1.591 1.839 4.772 2.51 9.721 2.51 14.776"></path><path stroke-width="3.35825" d="M241.602 82.42c0 .566 0 .955.035 1.344 0 .955-.035 1.944-.99 2.44-1.13.6-1.908-.319-2.615-.955-1.308-1.202-2.475-2.58-3.783-3.783-3.606-3.322-7.07-3.57-11.065-.813-2.262 1.556-4.524 1.202-6.857.318-.566-.212-1.06-.6-1.591-.954-4.384-2.793-4.419-3.075-1.485-7.317 1.308-1.91 2.192-4.066 3.96-5.692 1.095-1.025 2.332-1.661 3.782-1.237 1.661.495 2.828-.141 4.03-1.131 3.5-2.97 7.388-2.651 10.499.742 2.828 3.076 4.242 6.858 5.02 10.817.353 2.121 1.343 4.172 1.06 6.222m92.228 19.336c4.171.743 8.555 1.98 12.514 4.313 1.697.99 3.323 1.944 5.373 1.98.53 0 1.131.141 1.555.424 2.828 1.944 6.01 3.146 9.227 4.242 1.838.636 2.404 1.98 1.98 3.853-.708 3.288-1.98 6.328-3.359 9.368-.99 2.156-2.191 2.404-4.312 1.237-3.677-2.086-6.399-5.338-9.792-7.777-4.56-3.323-9.191-6.575-14.246-9.085-3.04-1.52-3.606-2.687-2.9-5.656.425-1.98 1.627-2.899 3.96-2.899m-39.31 137.3c-.035-1.874-.14-3.217-.035-4.525.142-2.192 1.45-2.97 3.5-2.121.354.141.742.283 1.025.566 3.04 3.216 7.07 4.913 10.817 6.999 2.475 1.378 4.313 3.287 4.1 6.469-.07 1.343.85 2.298 1.698 3.217 1.06 1.13 2.156 2.227 3.217 3.358 2.722 2.757 2.934 6.186 2.65 9.721-.07.99-.53 1.803-1.449 2.227-1.06.46-1.802-.283-2.403-.99-2.97-3.676-7-5.656-11.242-7.564-5.444-2.475-9.58-6.434-11.488-12.373-.566-1.873-.283-3.712-.39-4.984m-20.82-.566c.848 5.303-1.839 9.827-5.868 13.857-1.733 1.732-3.924 2.546-6.08 3.288-4.066 1.45-7.53 3.57-10.323 6.858-.353.424-.778.777-1.202 1.096-.707.565-1.45 1.308-2.474.777-.99-.53-1.308-1.414-1.379-2.51-.247-4.348 1.697-7.883 4.419-10.923 2.015-2.227 4.03-4.136 4.065-7.459 0-1.696 1.273-3.04 2.899-3.64 4.383-1.627 7.918-4.56 11.63-7.212.848-.6 1.59-1.661 2.863-1.06 1.344.636 1.414 1.908 1.414 3.181-.035 1.06 0 2.086.036 3.747m-38.991-137.193c4.666-.07 6.327 1.06 6.292 4.065 0 1.803-.742 3.146-2.58 3.641-7.106 1.944-12.656 6.328-17.923 11.206-2.192 2.05-4.49 4.065-7.282 5.303-2.121.954-3.535.565-4.702-1.45-1.873-3.217-2.651-6.752-2.898-10.393-.107-1.626.883-2.474 2.368-2.616 2.97-.282 5.515-1.484 7.848-3.252.318-.247.636-.565.99-.6 5.302-.284 9.05-4.596 14.175-5.41 1.308-.176 2.651-.6 3.712-.494m91.839-5.656c.424 4.383-.248 8.554-2.156 12.478-1.91 3.924-4.42 4.242-6.964.743-3.995-5.444-8.944-21.422-7.707-23.12 1.096-1.52 2.899-1.731 4.42-2.474 1.731-.884 3.11-1.98 3.852-3.818.46-1.06 1.131-2.12 2.51-2.12 1.379.035 2.05 1.06 2.475 2.156 1.944 5.232 4.1 10.428 3.57 16.155m14.74-31.214c1.804-.283 3.394.389 4.667 1.838 1.202 1.379 2.616 2.086 4.56 1.485 1.025-.319 2.05.212 2.687 1.025 1.873 2.333 3.924 4.595 5.16 7.423.743 1.662.531 3.076-.812 4.172-3.853 3.181-7.035 4.312-10.959 1.06-2.722-2.262-5.302-2.086-8.342-.106-1.98 1.273-3.535 2.97-5.232 4.596-.601.565-1.237 1.307-2.227.954-1.025-.389-1.237-1.308-1.237-2.298-.036-7.388 2.262-13.822 7.741-18.983 1.131-1.06 2.475-1.237 3.995-1.166m-54.262 4.63c.318 2.758-.566 5.02-1.485 7.247-.813 2.05-2.298 2.616-4.313 1.697-2.934-1.308-5.585-3.04-8.024-5.09-2.828-2.44-3.394-5.586-2.227-8.873 1.484-4.242 3.358-8.307 5.09-12.443.566-1.344 1.626-1.91 3.005-1.591 1.944.424 4.63.742 4.666 3.11.106 4.95 1.944 9.368 3.182 13.964.247.672.106 1.485.106 1.98m20.573 1.308c.39 3.747-.848 6.751-4.312 8.519-2.652 1.343-5.409.707-6.08-2.121-1.556-6.222-6.08-10.959-7.99-16.933-.318-.954-.707-1.909-.919-2.863-.671-3.076.707-4.631 3.818-4.95 3.181-.317 5.48.708 7.353 3.324 2.262 3.181 5.797 5.338 7.105 9.368.566 1.873 1.167 3.64 1.025 5.656m-51.894 20.326c.425 4.913-.035 9.721-1.166 14.493-.46 1.944-1.45 3.57-2.899 4.95-1.697 1.625-2.722 1.59-4.277-.213-2.333-2.722-2.934-6.221-3.252-9.544-.672-7.353.636-14.459 3.676-21.246.601-1.378 1.343-2.863 2.97-2.934 1.59-.07 2.12 1.52 2.969 2.616 1.485 1.98 2.05 4.1 1.909 6.505-.07 1.802.07 3.57.07 5.373m-.919-19.337c.071-2.898.672-5.62 1.91-8.307 1.944-4.277 4.1-8.449 5.408-13.009.07-.283.212-.636.424-.813 2.404-1.803 5.09-3.181 7.99-3.782 1.555-.318 2.155 1.202 2.297 2.651.353 3.288-.495 6.328-2.192 9.12-2.474 4.1-5.196 8.095-8.307 11.772-1.308 1.555-2.262 3.323-3.288 5.055-.565.919-1.06 2.05-2.439 1.661-1.308-.353-1.732-1.449-1.732-2.722-.035-.53-.035-1.06-.07-1.626M248.07 35.9c3.393.318 6.328 1.874 9.19 3.535 1.344.778 1.167 2.298.92 3.606-.283 1.343-1.096 2.44-2.58 2.687-2.758.424-5.48.919-8.237 1.095-3.606.248-6.787 1.273-9.474 3.747-.919.849-1.873 1.874-3.217 1.132-1.484-.813-1.732-2.298-1.45-3.853.955-5.515 4.738-8.484 9.545-10.464 1.626-.707 3.359-1.485 5.303-1.485"></path><path stroke-width="3.35825" d="M312.41 79.487c-.672.389-1.273.919-2.121.389-.778-.495-.92-1.238-.778-2.015.212-1.45.39-2.934.743-4.348 1.06-4.101 0-7.813-2.121-11.277-1.344-2.192-2.793-4.277-4.56-6.15-.602-.637-1.45-1.45-.53-2.405.706-.742 1.59-.353 2.368.071 4.984 2.757 8.448 6.929 10.923 11.984.707 1.52 3.075 9.827-3.924 13.75m-58.964-29.835c1.768.036 3.394.283 3.783 2.333.388 2.015.212 3.854-2.05 4.843-5.127 2.192-9.793.53-14.424-1.59-.671-.318-1.237-.955-1.166-1.874.07-.813.672-1.237 1.379-1.378 4.17-.814 8.342-1.556 12.478-2.334m71.69 72.291c0 4.596-1.98 8.52-4.348 12.267-.495.813-1.343 1.838-2.475 1.13s-.495-1.767-.106-2.686c1.556-3.924 2.369-7.989 2.51-12.196.07-1.52.07-3.358 1.98-3.322 1.803.035 2.404 1.696 2.404 3.393 0 .46.035.92.035 1.414m-78.901.849c-.036-2.086-.106-3.606-.071-5.162.035-.883.354-1.767 1.379-1.873 1.025-.106 1.52.707 1.803 1.52.212.636.282 1.379.247 2.05-.247 4.49.813 8.732 2.298 12.903.424 1.167 1.626 2.863-.283 3.606-1.52.6-2.156-1.167-2.757-2.263-1.945-3.5-3.147-7.211-2.616-10.781m20.892-81.164c-.248 1.45-.884 2.828-2.475 2.757-1.803-.07-2.616-1.626-2.651-3.252 0-1.45 1.025-2.545 2.474-2.51 1.662.07 2.44 1.379 2.652 3.005"></path></g><path fill="#fff" d="m510.12 234.397 2.323 8.626a8.825 8.825 0 0 0 6.223 6.223l8.626 2.323-8.626 2.323a8.825 8.825 0 0 0-6.223 6.222l-2.323 8.626-2.323-8.626a8.825 8.825 0 0 0-6.223-6.222l-8.624-2.325 8.626-2.323a8.825 8.825 0 0 0 6.223-6.223z" vector-effect="non-scaling-stroke"></path><path fill="#fff" d="m474.139 230.356 2.904 10.782a11.03 11.03 0 0 0 7.777 7.777l10.781 2.903-10.781 2.904a11.03 11.03 0 0 0-7.777 7.777l-2.904 10.781-2.904-10.781a11.03 11.03 0 0 0-7.777-7.777l-10.779-2.906 10.782-2.904a11.03 11.03 0 0 0 7.777-7.777z" vector-effect="non-scaling-stroke"></path><path fill="#fff" d="m425.465 223.825 3.775 14.017a14.34 14.34 0 0 0 10.11 10.11l14.018 3.776-14.017 3.775a14.34 14.34 0 0 0-10.111 10.11l-3.775 14.018-3.775-14.017a14.34 14.34 0 0 0-10.11-10.111l-14.015-3.778 14.017-3.775a14.34 14.34 0 0 0 10.11-10.11zM55.815 268.686l-2.323-8.626a8.825 8.825 0 0 0-6.223-6.223l-8.626-2.323 8.626-2.323a8.825 8.825 0 0 0 6.223-6.222l2.323-8.626 2.323 8.626a8.825 8.825 0 0 0 6.223 6.222l8.624 2.325-8.626 2.323a8.825 8.825 0 0 0-6.223 6.223z" vector-effect="non-scaling-stroke"></path><path fill="#fff" d="m93.115 272.388-3.008-10.753a11.03 11.03 0 0 0-7.852-7.701l-10.809-2.8 10.753-3.007a11.03 11.03 0 0 0 7.702-7.852l2.8-10.81 3.007 10.754a11.03 11.03 0 0 0 7.851 7.702l10.807 2.801-10.753 3.008a11.03 11.03 0 0 0-7.701 7.851z" vector-effect="non-scaling-stroke"></path><path fill="#fff" d="m140.47 279.258-3.775-14.017a14.34 14.34 0 0 0-10.11-10.11l-14.018-3.776 14.017-3.775a14.34 14.34 0 0 0 10.111-10.11l3.775-14.018 3.775 14.017a14.34 14.34 0 0 0 10.11 10.111l14.015 3.778-14.017 3.775a14.34 14.34 0 0 0-10.11 10.11z" vector-effect="non-scaling-stroke"></path></svg></svg>